<?xml version="1.0" encoding="UTF-8" standalone="no"?>
<svg width="296px" height="452px" viewBox="0 0 296 452" version="1.1" xmlns="http://www.w3.org/2000/svg" xmlns:xlink="http://www.w3.org/1999/xlink" xmlns:sketch="http://www.bohemiancoding.com/sketch/ns">
    <!-- Generator: Sketch 3.3.3 (12081) - http://www.bohemiancoding.com/sketch -->
    <title>construct-classes</title>
    <desc>Created with Sketch.</desc>
    <defs></defs>
    <g id="Page-1" stroke="none" stroke-width="1" fill="none" fill-rule="evenodd" sketch:type="MSPage">
        <g id="Revive---trainers" sketch:type="MSArtboardGroup" transform="translate(-918.000000, -2479.000000)">
            <g id="construct-classes" sketch:type="MSLayerGroup" transform="translate(918.000000, 2479.000000)">
                <rect id="Rectangle-39-Copy-8" stroke="#202328" stroke-width="2" fill="#FFFFFF" sketch:type="MSShapeGroup" x="7" y="97" width="100" height="100" rx="9.2879257"></rect>
                <rect id="Rectangle-39-Copy-9" stroke="#202328" stroke-width="2" fill="#FFFFFF" sketch:type="MSShapeGroup" x="143" y="252" width="100" height="100" rx="9.2879257"></rect>
                <rect id="Rectangle-39" fill="#202328" sketch:type="MSShapeGroup" x="29" y="64" width="205" height="280.401875" rx="9.2879257"></rect>
                <rect id="Rectangle-39-Copy" fill="#FFFFFF" sketch:type="MSShapeGroup" x="44" y="81" width="176.244344" height="246.731852" rx="9.2879257"></rect>
                <rect id="Rectangle-39-Copy-7" fill="#202328" sketch:type="MSShapeGroup" x="0" y="300" width="73" height="73" rx="9.2879257"></rect>
                <path d="M40.532,336.421 C40.315,336.158 40.06,335.926 39.776,335.729 C39.961,335.583 40.131,335.42 40.286,335.24 C40.573,334.904 40.797,334.513 40.952,334.077 C41.101,333.652 41.176,333.194 41.176,332.713 C41.176,331.995 41.019,331.358 40.71,330.818 C40.41,330.297 40.014,329.865 39.532,329.535 C39.068,329.215 38.534,328.978 37.944,328.83 C36.659,328.506 35.236,328.542 34.135,328.999 C33.516,329.256 32.977,329.618 32.538,330.074 C32.093,330.532 31.75,331.09 31.514,331.736 C31.287,332.363 31.172,333.054 31.172,333.791 C31.172,334.205 31.508,334.541 31.922,334.541 L32.652,334.541 C33.053,334.541 33.383,334.225 33.402,333.825 C33.424,333.35 33.501,332.906 33.633,332.507 C33.758,332.134 33.928,331.826 34.151,331.568 C34.366,331.321 34.643,331.121 34.975,330.974 C35.556,330.72 36.356,330.664 37.226,330.888 C37.565,330.977 37.875,331.111 38.143,331.284 C38.391,331.443 38.585,331.642 38.739,331.893 C38.877,332.12 38.946,332.388 38.946,332.713 C38.946,333.136 38.862,333.474 38.697,333.721 C38.518,333.989 38.289,334.194 37.998,334.349 C37.676,334.52 37.309,334.635 36.906,334.693 C36.464,334.757 36.014,334.778 35.575,334.755 C35.376,334.749 35.17,334.818 35.02,334.96 C34.871,335.101 34.787,335.298 34.787,335.504 L34.787,336.139 C34.787,336.347 34.873,336.546 35.026,336.687 C35.178,336.83 35.381,336.909 35.589,336.887 C36.087,336.853 36.576,336.87 37.057,336.94 C37.501,337.004 37.898,337.131 38.239,337.318 C38.549,337.487 38.789,337.718 38.979,338.025 C39.161,338.32 39.254,338.715 39.254,339.2 C39.254,339.606 39.176,339.953 39.018,340.261 C38.858,340.573 38.643,340.836 38.373,341.045 C38.1,341.261 37.772,341.428 37.397,341.542 C36.52,341.81 35.528,341.766 34.803,341.49 C34.416,341.343 34.102,341.143 33.842,340.877 C33.585,340.616 33.393,340.298 33.254,339.901 C33.114,339.505 33.053,339.04 33.075,338.518 C33.084,338.314 33.009,338.116 32.868,337.968 C32.725,337.821 32.53,337.738 32.327,337.738 L31.593,337.738 C31.194,337.738 30.865,338.05 30.844,338.448 C30.801,339.286 30.896,340.046 31.126,340.708 C31.364,341.387 31.731,341.97 32.217,342.438 C32.694,342.905 33.286,343.264 33.972,343.506 C34.633,343.738 35.381,343.856 36.193,343.856 C36.875,343.856 37.535,343.764 38.152,343.585 C38.795,343.399 39.369,343.108 39.854,342.721 C40.35,342.326 40.747,341.83 41.036,341.25 C41.334,340.662 41.485,339.972 41.485,339.2 C41.485,338.665 41.402,338.157 41.241,337.695 C41.079,337.224 40.84,336.797 40.532,336.421 L40.532,336.421 Z M52.393,317.772 L47.597,317.772 L47.597,315.75 C47.597,315.336 47.262,315 46.847,315 C46.434,315 46.098,315.336 46.098,315.75 L46.098,317.772 L36.856,317.772 L36.856,315.75 C36.856,315.336 36.52,315 36.106,315 C35.692,315 35.356,315.336 35.356,315.75 L35.356,317.772 L26.111,317.772 L26.111,315.75 C26.111,315.336 25.776,315 25.362,315 C24.948,315 24.612,315.336 24.612,315.75 L24.612,317.772 L19.928,317.772 C18.866,317.772 18,318.636 18,319.699 L18.001,355.798 C18.035,356.846 18.879,357.668 19.928,357.668 L52.393,357.668 C53.44,357.668 54.286,356.846 54.318,355.774 L54.318,319.699 C54.318,318.636 53.454,317.772 52.393,317.772 L52.393,317.772 Z M46.847,323.025 C47.006,323.025 47.147,322.965 47.268,322.88 C47.161,322.987 47.014,323.054 46.852,323.054 C46.744,323.054 46.649,323.017 46.561,322.967 C46.651,323.004 46.746,323.025 46.847,323.025 L46.847,323.025 Z M36.106,323.025 C36.209,323.025 36.307,323.005 36.398,322.967 C36.31,323.017 36.215,323.054 36.108,323.054 C35.998,323.054 35.903,323.017 35.815,322.967 C35.906,323.005 36.002,323.025 36.106,323.025 L36.106,323.025 Z M25.362,323.025 C25.465,323.025 25.564,323.005 25.653,322.967 C25.567,323.017 25.471,323.054 25.364,323.054 C25.256,323.054 25.161,323.017 25.073,322.967 C25.162,323.005 25.258,323.025 25.362,323.025 L25.362,323.025 Z M19.928,356.168 C19.696,356.168 19.509,355.985 19.502,355.774 L19.502,349.352 L41.35,349.352 C40.848,351.473 39.833,354.205 37.806,356.168 L19.928,356.168 L19.928,356.168 Z M52.818,355.752 C52.811,355.981 52.62,356.168 52.393,356.168 L40.264,356.168 C41.547,355.043 42.859,353.672 44.226,352.238 L44.954,351.475 C47.102,349.23 50.586,345.419 52.818,342.122 L52.818,355.752 L52.818,355.752 Z M41.968,352.427 C42.911,350.056 43.21,347.81 43.303,346.779 C44.148,346.566 45.877,346.054 48.276,344.955 C48.581,344.815 48.877,344.66 49.167,344.493 C47.334,346.745 45.299,348.944 43.87,350.438 L43.139,351.203 C42.745,351.618 42.354,352.028 41.968,352.427 L41.968,352.427 Z M52.818,339.174 C52.25,339.924 50.244,342.402 47.651,343.592 C44.439,345.063 42.481,345.428 42.46,345.432 C42.114,345.495 41.856,345.791 41.843,346.143 C41.843,346.164 41.814,346.835 41.651,347.852 L19.502,347.852 L19.5,319.699 C19.5,319.464 19.692,319.272 19.928,319.272 L24.612,319.272 L24.612,320.519 C23.829,320.822 23.272,321.577 23.272,322.464 C23.272,323.617 24.21,324.554 25.364,324.554 C26.514,324.554 27.452,323.617 27.452,322.464 C27.452,321.576 26.893,320.82 26.111,320.518 L26.111,319.272 L35.356,319.272 L35.356,320.518 C34.573,320.821 34.014,321.576 34.014,322.464 C34.014,323.617 34.954,324.554 36.108,324.554 C37.259,324.554 38.196,323.617 38.196,322.464 C38.196,321.576 37.637,320.82 36.856,320.518 L36.856,319.272 L46.098,319.272 L46.098,320.519 C45.317,320.823 44.76,321.577 44.76,322.464 C44.76,323.617 45.698,324.554 46.852,324.554 C48.002,324.554 48.94,323.617 48.94,322.464 C48.94,321.575 48.379,320.819 47.597,320.517 L47.597,319.272 L52.393,319.272 C52.627,319.272 52.818,319.464 52.818,319.699 L52.818,339.174 L52.818,339.174 Z" id="Fill-148" fill="#FFFFFF" sketch:type="MSShapeGroup"></path>
                <path d="M153.470072,75.0883536 L185.35619,93.3323826 C190.701397,96.3907071 190.052527,98.869969 183.889307,98.869969 L77.582493,98.869969 C71.4271494,98.869969 70.7684655,96.3918159 76.1156098,93.3323826 L108.001728,75.0883536 C107.424713,73.0414979 107.115991,70.8819634 107.115991,68.6502303 C107.115991,55.5885688 117.690984,45 130.7359,45 C143.780816,45 154.35581,55.5885688 154.35581,68.6502303 C154.35581,70.8819634 154.047087,73.0414979 153.470072,75.0883536 L153.470072,75.0883536 Z M131,74 C137.075132,74 142,69.0751322 142,63 C142,56.9248678 137.075132,52 131,52 C124.924868,52 120,56.9248678 120,63 C120,69.0751322 124.924868,74 131,74 Z" id="Triangle-1" fill="#A7A7A7" sketch:type="MSShapeGroup"></path>
                <rect id="Rectangle-39-Copy-6" stroke="#333333" stroke-width="2" fill="#FFFFFF" sketch:type="MSShapeGroup" x="196" y="0" width="100" height="100" rx="9.2879257"></rect>
                <path d="M252.2,33.3549139 L240.8,33.3549139 L240.8,25.7235345 C240.7411,23.8385838 240.8399,23.7546386 242.7,23.8156897 L250.3,23.8156897 C252.162,23.8290446 252.2076,23.7527308 252.2,25.7235345 L252.2,33.3549139 L252.2,33.3549139 Z M252.2,61.9725865 C248.2974,61.9706786 241.9058,61.9725865 240.8,61.9725865 L240.8,37.1706036 L252.2,37.1706036 L252.2,61.9725865 L252.2,61.9725865 Z M246.5,75.8178165 L240.8,65.7882761 L252.2,65.7882761 L246.5,75.8178165 L246.5,75.8178165 Z M252.2,20 L240.8,20 C238.501,20 237,21.4862111 237,23.8156897 L237,66.1946471 L244.6,79.6678473 C245.7476,81.4440509 247.2524,81.4440509 248.4,79.6678473 L256,66.1946471 L256,23.8156897 C256,21.4862111 254.499,20.0019078 252.2,20 L252.2,20 Z" id="Fill-213" fill="#202328" sketch:type="MSShapeGroup" transform="translate(246.500000, 50.500000) rotate(26.000000) translate(-246.500000, -50.500000) "></path>
                <path d="M153.79902,73.2765656 L185.35619,91.3323826 C190.701397,94.3907071 190.052527,96.869969 183.889307,96.869969 L77.582493,96.869969 C71.4271494,96.869969 70.7684655,94.3918159 76.1156098,91.3323826 L108.33214,72.8993045 C107.788881,70.9086827 107.498845,68.8133708 107.498845,66.6502303 C107.498845,53.5885688 118.073838,43 131.118754,43 C144.16367,43 154.738664,53.5885688 154.738664,66.6502303 C154.738664,68.9504836 154.410693,71.1740369 153.79902,73.2765656 L153.79902,73.2765656 Z M130.748267,74.4988446 C135.304297,74.4988446 138.997689,70.8054525 138.997689,66.2494223 C138.997689,61.6933922 135.304297,58 130.748267,58 C126.192237,58 122.498845,61.6933922 122.498845,66.2494223 C122.498845,70.8054525 126.192237,74.4988446 130.748267,74.4988446 Z" id="Triangle-1-Copy" fill="#D8D8D8" sketch:type="MSShapeGroup"></path>
                <text id="SCHEDULE" sketch:type="MSTextLayer" font-family="Lato" font-size="36" font-weight="normal" fill="#FFFFFF">
                    <tspan x="39" y="414">SCHEDULE</tspan>
                </text>
                <text id="You-pick-your-activi" sketch:type="MSTextLayer" font-family="Lato" font-size="18" font-weight="normal" line-spacing="30" fill="#FFFFFF">
                    <tspan x="39" y="440">You pick your activities</tspan>
                </text>
                <g id="Classes" transform="translate(82.000000, 129.000000)" sketch:type="MSShapeGroup">
                    <rect id="Rectangle-52-Copy" fill="#D8D8D8" x="0" y="53" width="40" height="5"></rect>
                    <rect id="Rectangle-52-Copy-2" fill="#D8D8D8" x="0" y="61" width="100" height="2"></rect>
                    <rect id="Rectangle-52-Copy-3" fill="#D8D8D8" x="0" y="65" width="100" height="2"></rect>
                    <rect id="Rectangle-52-Copy-4" fill="#D8D8D8" x="0" y="69" width="100" height="2"></rect>
                    <rect id="Rectangle-52-Copy-5" fill="#D8D8D8" x="0" y="73" width="100" height="2"></rect>
                    <rect id="Rectangle-52" stroke="#FFFFFF" stroke-width="1.33333333" fill="#202328" x="27" y="15" width="44" height="10"></rect>
                    <rect id="Rectangle-50" stroke="#FFFFFF" stroke-width="1.71428571" fill="#676767" x="12" y="0" width="23" height="40" rx="6"></rect>
                    <rect id="Rectangle-50-Copy" stroke="#FFFFFF" stroke-width="1.71428571" fill="#676767" x="64" y="0" width="23" height="40" rx="6"></rect>
                    <path d="M70.408835,110.756861 C68.9251595,108.137213 67.9775907,106.42039 67.1761111,104.97269 C66.1534874,103.115339 65.373452,101.703434 64.0278239,99.4046135 C63.4488286,98.4156171 63.3416072,96.969243 63.7718329,95.9616863 C64.0090602,95.4101816 64.3628907,95.0734456 64.8226023,94.9594326 C65.3144802,94.8374652 65.6388249,94.3734588 65.5758323,93.8736577 C65.51418,93.3751823 65.0879751,93 64.5800139,93 L57.1723583,93 C56.6161475,93 56.1671581,93.4454461 56.1671581,93.9942994 C56.1671581,94.5444783 56.6161475,94.9885987 57.1723583,94.9885987 L62.0120624,94.9885987 C61.9785557,95.0535596 61.9490699,95.1185205 61.919584,95.1861328 C61.2427492,96.7717089 61.3888383,98.8676919 62.2868171,100.40289 C62.2921782,100.409519 33.727068,100.424102 33.727068,100.424102 L32.6588752,98.3029299 L38.3523294,98.3029299 C38.9071999,98.3029299 39.3575296,97.8588095 39.3575296,97.3086305 C39.3575296,96.7597773 38.9071999,96.3143312 38.3523294,96.3143312 L26.1156918,96.3143312 C25.5608213,96.3143312 25.1104916,96.7597773 25.1104916,97.3086305 C25.1104916,97.8588095 25.5608213,98.3029299 26.1156918,98.3029299 L30.4112475,98.3029299 L31.9941028,101.440939 C31.9632767,101.508551 31.9364713,101.549649 31.9244089,101.597375 L27.8982469,110.477131 C26.6102504,109.997216 25.223074,109.722789 23.7662038,109.722789 C17.2779714,109.722789 12,114.943524 12,121.361395 C12,127.779266 17.2779714,133 23.7662038,133 C29.9006058,133 34.946711,128.336073 35.4854983,122.407398 L40.0156007,122.407398 C40.3667507,125.3081 42.8422238,127.571126 45.8712271,127.571126 C49.1347772,127.571126 51.7925267,124.942198 51.7925267,121.711388 C51.7925267,120.672014 51.4936471,119.709532 51.011151,118.861063 L66.3357637,107.594989 C66.9536268,108.707278 67.6894333,110.022405 68.6504048,111.719342 C65.5222216,113.812674 63.4649118,117.353705 63.4649118,121.361395 C63.4649118,127.779266 68.7415429,133 75.2311156,133 C81.7206884,133 87,127.779266 87,121.361395 C87,114.943524 81.7206884,109.722789 75.2311156,109.722789 C73.5115531,109.722789 71.8831287,110.097972 70.408835,110.756861 Z M23.7662038,131.011401 C18.3877124,131.011401 14.0104005,126.682885 14.0104005,121.361395 C14.0104005,116.039905 18.3877124,111.711388 23.7662038,111.711388 C24.9295556,111.711388 26.0392966,111.923505 27.075323,112.293385 L23.1255562,121.006098 C22.9875087,121.313668 23.0156543,121.67029 23.2006112,121.952671 C23.385568,122.236378 23.7032113,122.407398 24.0449794,122.407398 L33.4683965,122.407398 C32.938991,127.238367 28.7908647,131.011401 23.7662038,131.011401 L23.7662038,131.011401 Z M25.5970085,120.418799 L28.8846834,113.160414 C31.4097464,114.706218 33.1775586,117.351054 33.4791186,120.418799 L25.5970085,120.418799 L25.5970085,120.418799 Z M40.0986973,120.418799 L35.4895191,120.418799 C35.1718758,116.545009 32.9322897,113.20814 29.7143087,111.33488 L32.9993031,104.085775 L41.0275023,118.354633 C40.5905752,118.967122 40.272932,119.665783 40.0986973,120.418799 L40.0986973,120.418799 Z M45.8712271,125.582527 C43.7107168,125.582527 41.9536268,123.845817 41.9536268,121.711388 C41.9536268,119.576959 43.7107168,117.842901 45.8712271,117.842901 C48.0277167,117.842901 49.7821262,119.576959 49.7821262,121.711388 C49.7821262,123.845817 48.0277167,125.582527 45.8712271,125.582527 L45.8712271,125.582527 Z M49.7445987,117.316585 C48.7032113,116.419064 47.3575832,115.854302 45.8712271,115.854302 C44.6194178,115.854302 43.4627674,116.242742 42.5058168,116.897653 L34.3583338,102.412701 L63.4488286,102.412701 C64.1377258,103.617791 64.7046588,104.641257 65.3640701,105.835742 L49.7445987,117.316585 L49.7445987,117.316585 Z M75.2311156,131.011401 C69.851284,131.011401 65.4753123,126.682885 65.4753123,121.361395 C65.4753123,118.097441 67.1265212,115.211322 69.6395218,113.464006 C71.0240176,115.894074 72.8025519,118.981705 75.1842063,123.082195 C75.3705034,123.401697 75.7082507,123.580671 76.0567201,123.580671 C76.2255937,123.580671 76.3984882,123.538247 76.5552994,123.448098 C77.0377955,123.173671 77.2026484,122.566485 76.9278936,122.090548 C74.5489197,117.996686 72.7757465,114.915683 71.3952715,112.490919 C72.5720259,111.991118 73.8694044,111.711388 75.2311156,111.711388 C80.6109473,111.711388 84.9882593,116.039905 84.9882593,121.361395 C84.9882593,126.682885 80.6109473,131.011401 75.2311156,131.011401 L75.2311156,131.011401 Z" id="Fill-54" fill="#202328"></path>
                    <rect id="Rectangle-52-Copy-10" fill="#D8D8D8" x="0" y="145" width="40" height="5"></rect>
                    <rect id="Rectangle-52-Copy-6" fill="#D8D8D8" x="0" y="153" width="100" height="2"></rect>
                    <rect id="Rectangle-52-Copy-7" fill="#D8D8D8" x="0" y="157" width="100" height="2"></rect>
                    <rect id="Rectangle-52-Copy-8" fill="#D8D8D8" x="0" y="161" width="100" height="2"></rect>
                    <rect id="Rectangle-52-Copy-9" fill="#D8D8D8" x="0" y="165" width="100" height="2"></rect>
                </g>
                <rect id="Rectangle-62" stroke="#333333" fill="#FFFFFF" sketch:type="MSShapeGroup" x="59" y="130" width="15" height="14" rx="3"></rect>
                <rect id="Rectangle-62-Copy-2" stroke="#333333" fill="#FFFFFF" sketch:type="MSShapeGroup" x="59" y="219" width="15" height="14" rx="3"></rect>
                <path d="M77.3495611,125.789415 C77.2235953,125.688408 77.0399115,125.707128 76.9385149,125.833483 L68.6809307,136.057772 C68.672741,136.068302 68.6653312,136.078831 68.6583115,136.090141 C68.6559716,136.094041 68.6536316,136.098331 68.6509017,136.10301 L66.4162764,138.891417 C66.3511486,138.971365 66.2614516,139.019723 66.1635648,139.027523 C66.0621682,139.032982 65.9701313,139.001004 65.8952538,138.933536 L59.4893278,133.10947 C59.3703818,133.001444 59.185138,133.009634 59.0759416,133.12936 C58.9675252,133.248696 58.9761049,133.43394 59.0958309,133.542356 L65.5025369,139.367201 C65.680371,139.527096 65.9026635,139.613283 66.1354858,139.613283 C66.159665,139.613283 66.1838441,139.612503 66.2084133,139.610553 C66.4677547,139.590664 66.7025268,139.466258 66.8713912,139.258785 L69.1344856,136.434889 C69.1418953,136.42475 69.1496951,136.41266 69.1567148,136.39979 L77.3936297,126.200851 C77.4950263,126.075275 77.4751369,125.891202 77.3495611,125.789415" id="Fill-141-Copy-2" stroke="#00C8FF" fill="#5B5B58" sketch:type="MSShapeGroup"></path>
                <path d="M77.3495611,213.789415 C77.2235953,213.688408 77.0399115,213.707128 76.9385149,213.833483 L68.6809307,224.057772 C68.672741,224.068302 68.6653312,224.078831 68.6583115,224.090141 C68.6559716,224.094041 68.6536316,224.098331 68.6509017,224.10301 L66.4162764,226.891417 C66.3511486,226.971365 66.2614516,227.019723 66.1635648,227.027523 C66.0621682,227.032982 65.9701313,227.001004 65.8952538,226.933536 L59.4893278,221.10947 C59.3703818,221.001444 59.185138,221.009634 59.0759416,221.12936 C58.9675252,221.248696 58.9761049,221.43394 59.0958309,221.542356 L65.5025369,227.367201 C65.680371,227.527096 65.9026635,227.613283 66.1354858,227.613283 C66.159665,227.613283 66.1838441,227.612503 66.2084133,227.610553 C66.4677547,227.590664 66.7025268,227.466258 66.8713912,227.258785 L69.1344856,224.434889 C69.1418953,224.42475 69.1496951,224.41266 69.1567148,224.39979 L77.3936297,214.200851 C77.4950263,214.075275 77.4751369,213.891202 77.3495611,213.789415" id="Fill-141-Copy" stroke="#00C8FF" fill="#5B5B58" sketch:type="MSShapeGroup"></path>
            </g>
        </g>
    </g>
</svg>