<?xml version="1.0" encoding="UTF-8" standalone="no"?>
<svg width="92px" height="92px" viewBox="0 0 92 92" version="1.1" xmlns="http://www.w3.org/2000/svg" xmlns:xlink="http://www.w3.org/1999/xlink" xmlns:sketch="http://www.bohemiancoding.com/sketch/ns">
    <!-- Generator: Sketch 3.3.3 (12081) - http://www.bohemiancoding.com/sketch -->
    <title>engage-icon</title>
    <desc>Created with Sketch.</desc>
    <defs></defs>
    <g id="Users-page" stroke="none" stroke-width="1" fill="none" fill-rule="evenodd" sketch:type="MSPage">
        <g id="Revive---users" sketch:type="MSArtboardGroup" transform="translate(-1067.000000, -2101.000000)">
            <g id="3-sections" sketch:type="MSLayerGroup" transform="translate(264.000000, 2102.000000)">
                <g id="Engage-your-community-icon" transform="translate(804.000000, 0.000000)" sketch:type="MSShapeGroup">
                    <g id="engage-icon">
                        <circle id="Oval-28-Copy-2" stroke="#000000" stroke-width="2" cx="45" cy="45" r="45"></circle>
                        <path d="M45.3276676,45.844 C51.0756676,45.844 55.7526676,41.168 55.7526676,35.42 C55.7526676,29.675 51.0756676,25 45.3276676,25 C39.5826676,25 34.9086676,29.675 34.9086676,35.42 C34.9086676,41.168 39.5826676,45.844 45.3276676,45.844 L45.3276676,45.844 Z M45.3276676,26.5 C50.2486676,26.5 54.2526676,30.502 54.2526676,35.42 C54.2526676,40.341 50.2486676,44.344 45.3276676,44.344 C40.4096676,44.344 36.4086676,40.341 36.4086676,35.42 C36.4086676,30.502 40.4096676,26.5 45.3276676,26.5 L45.3276676,26.5 Z M61.0486676,42.314 C59.6226676,42.314 58.2866676,41.836 57.1836676,40.932 C56.8646676,40.669 56.3906676,40.715 56.1286676,41.036 C55.8656676,41.356 55.9126676,41.829 56.2326676,42.092 C57.5866676,43.202 59.2966676,43.814 61.0486676,43.814 C65.2496676,43.814 68.6666676,40.398 68.6666676,36.199 C68.6666676,32.001 65.2496676,28.586 61.0486676,28.586 C59.2946676,28.586 57.5846676,29.197 56.2316676,30.307 C55.9126676,30.569 55.8656676,31.042 56.1286676,31.362 C56.3906676,31.682 56.8646676,31.729 57.1846676,31.467 C58.2686676,30.576 59.6416676,30.086 61.0486676,30.086 C64.4216676,30.086 67.1666676,32.828 67.1666676,36.199 C67.1666676,39.571 64.4216676,42.314 61.0486676,42.314 L61.0486676,42.314 Z M56.1116676,51.287 C53.4026676,46.772 47.7156676,47.337 47.5546676,47.361 L42.9216676,47.361 C42.7176676,47.357 38.1416676,47.237 35.4526676,51.102 C33.9616676,53.24 31.7716676,61.444 31.0016676,64.858 C30.9096676,65.263 31.1636676,65.664 31.5676676,65.755 C31.9716676,65.848 32.3726676,65.593 32.4636676,65.188 C33.2736676,61.603 35.4096676,53.787 36.6836676,51.96 C38.8956676,48.78 42.8386676,48.868 42.8956676,48.861 L47.6346676,48.857 C47.6846676,48.851 52.6456676,48.374 54.8466676,52.093 C54.8636676,52.122 54.8826676,52.15 54.9036676,52.177 C56.2546676,53.882 58.5166676,61.556 59.3496676,65.191 C59.4296676,65.538 59.7386676,65.773 60.0806676,65.773 C60.1356676,65.773 60.1916676,65.767 60.2486676,65.755 C60.6516676,65.662 60.9046676,65.26 60.8116676,64.855 C60.1576676,62.004 57.8396676,53.536 56.1116676,51.287 L56.1116676,51.287 Z M29.6046676,43.814 C31.3576676,43.814 33.0696676,43.202 34.4236676,42.092 C34.7436676,41.829 34.7906676,41.356 34.5276676,41.036 C34.2646676,40.715 33.7926676,40.669 33.4726676,40.932 C32.3696676,41.836 31.0326676,42.314 29.6046676,42.314 C26.2316676,42.314 23.4876676,39.571 23.4876676,36.199 C23.4876676,32.828 26.2316676,30.086 29.6046676,30.086 C31.0326676,30.086 32.3686676,30.563 33.4686676,31.467 C33.7896676,31.729 34.2626676,31.682 34.5246676,31.362 C34.7876676,31.042 34.7406676,30.569 34.4206676,30.307 C33.0686676,29.197 31.3576676,28.586 29.6046676,28.586 C25.4046676,28.586 21.9876676,32.001 21.9876676,36.199 C21.9876676,40.398 25.4046676,43.814 29.6046676,43.814 L29.6046676,43.814 Z M70.6386676,54.348 C69.8396676,50.744 69.0326676,48.34 68.2406676,47.201 C66.2706676,44.364 62.8936676,44.452 62.7786676,44.455 L59.5546676,44.46 C59.3916676,44.438 55.5206676,44.054 53.4466676,46.989 C53.2076676,47.327 53.2886676,47.796 53.6266676,48.034 C53.9636676,48.272 54.4326676,48.193 54.6716676,47.854 C56.2286676,45.649 59.3606676,45.945 59.4726676,45.955 L62.8056676,45.955 C62.8316676,45.936 65.4996676,45.883 67.0096676,48.057 C67.4766676,48.729 68.2316676,50.423 69.1736676,54.672 C69.2516676,55.021 69.5616676,55.26 69.9056676,55.26 C69.9596676,55.26 70.0136676,55.254 70.0676676,55.242 C70.4726676,55.152 70.7276676,54.752 70.6386676,54.348 L70.6386676,54.348 Z M36.1646676,48.136 C36.3766676,48.494 36.8356676,48.612 37.1916676,48.399 C37.5486676,48.188 37.6666676,47.728 37.4556676,47.372 C35.4716676,44.023 31.2776676,44.44 31.1816676,44.455 L27.9036676,44.455 C27.7676676,44.455 24.3846676,44.361 22.4136676,47.201 C21.6176676,48.346 20.8116676,50.751 20.0176676,54.348 C19.9286676,54.753 20.1846676,55.153 20.5886676,55.242 C20.6436676,55.254 20.6976676,55.26 20.7506676,55.26 C21.0946676,55.26 21.4056676,55.021 21.4826676,54.671 C22.2126676,51.362 22.9806676,49.013 23.6456676,48.057 C25.1406676,45.902 27.7376676,45.955 27.8776676,45.955 L31.2606676,45.951 C31.2956676,45.947 34.6786676,45.627 36.1646676,48.136 L36.1646676,48.136 Z" id="Fill-92" fill="#000000"></path>
                    </g>
                </g>
            </g>
        </g>
    </g>
</svg>