<?xml version="1.0" encoding="UTF-8" standalone="no"?>
<svg width="92px" height="92px" viewBox="0 0 92 92" version="1.1" xmlns="http://www.w3.org/2000/svg" xmlns:xlink="http://www.w3.org/1999/xlink" xmlns:sketch="http://www.bohemiancoding.com/sketch/ns">
    <!-- Generator: Sketch 3.3.3 (12081) - http://www.bohemiancoding.com/sketch -->
    <title>find-your-fit</title>
    <desc>Created with Sketch.</desc>
    <defs></defs>
    <g id="Users-page" stroke="none" stroke-width="1" fill="none" fill-rule="evenodd" sketch:type="MSPage">
        <g id="Revive---users" sketch:type="MSArtboardGroup" transform="translate(-665.000000, -2101.000000)" stroke="#000000">
            <g id="3-sections" sketch:type="MSLayerGroup" transform="translate(264.000000, 2102.000000)">
                <g id="Find-your-fit-icon" transform="translate(402.000000, 0.000000)" sketch:type="MSShapeGroup">
                    <g id="find-your-fit">
                        <circle id="Oval-28-Copy" stroke-width="2" cx="45" cy="45" r="45"></circle>
                        <path d="M64.7641548,30.140074 C64.4911824,29.9218969 64.0931329,29.9623313 63.8734028,30.2352632 L45.9789229,52.3200004 C45.9611754,52.3427447 45.9451182,52.365489 45.9299061,52.3899181 C45.9248355,52.398342 45.9197648,52.4076082 45.9138489,52.4177168 L41.071336,58.4407503 C40.9302016,58.6134387 40.735825,58.7178941 40.523701,58.7347418 C40.3039709,58.7465351 40.1045236,58.6774598 39.9422614,58.5317276 L26.0603908,45.9515901 C25.8026305,45.7182502 25.4012006,45.7359402 25.1645682,45.9945516 C24.929626,46.2523206 24.9482185,46.6524522 25.2076691,46.8866344 L39.0912299,59.4684568 C39.4766026,59.8138335 39.9583186,60 40.4628527,60 C40.5152498,60 40.567647,59.9983152 40.6208893,59.9941033 C41.1828912,59.9511418 41.6916509,59.6824219 42.057586,59.2342745 L46.9617924,53.1345841 C46.9778496,53.1126822 46.9947519,53.0865683 47.009964,53.0587697 L64.8596528,31.0287873 C65.0793829,30.7575402 65.036282,30.3599357 64.7641548,30.140074" id="Fill-141" fill="#000000"></path>
                    </g>
                </g>
            </g>
        </g>
    </g>
</svg>