<?xml version="1.0" encoding="UTF-8" standalone="no"?>
<svg width="92px" height="92px" viewBox="0 0 92 92" version="1.1" xmlns="http://www.w3.org/2000/svg" xmlns:xlink="http://www.w3.org/1999/xlink" xmlns:sketch="http://www.bohemiancoding.com/sketch/ns">
    <!-- Generator: Sketch 3.3.3 (12081) - http://www.bohemiancoding.com/sketch -->
    <title>Excervice your freedom - icon</title>
    <desc>Created with Sketch.</desc>
    <defs></defs>
    <g id="Users-page" stroke="none" stroke-width="1" fill="none" fill-rule="evenodd" sketch:type="MSPage">
        <g id="Revive---users" sketch:type="MSArtboardGroup" transform="translate(-263.000000, -1439.000000)">
            <g id="3-sections" sketch:type="MSLayerGroup" transform="translate(264.000000, 1440.000000)">
                <g id="Excervice-your-freedom---icon" sketch:type="MSShapeGroup">
                    <circle id="Oval-28" stroke="#000000" stroke-width="2" cx="45" cy="45" r="45"></circle>
                    <path d="M40.8909375,53.178125 L35.0153125,56.7360937 C34.4804687,56.9854687 33.9992188,56.4692187 34.2485937,55.9682812 L37.8054688,50.0882812 L40.8909375,53.178125 L40.8909375,53.178125 Z M51.2301563,35.8990625 L55.09875,39.71625 L42.805,52.0176563 C41.365625,50.5760938 39.3717188,48.5810938 38.96375,48.173125 L51.2301563,35.8990625 L51.2301563,35.8990625 Z M55.09875,32.0282812 C55.523125,31.6028125 56.2110938,31.6028125 56.6365625,32.0282812 L58.9410937,34.3339062 C59.3654688,34.759375 59.3654688,35.4473437 58.9410937,35.8717187 L56.6365625,38.1784375 L52.8489063,34.278125 L55.09875,32.0282812 L55.09875,32.0282812 Z M36.8703125,47.761875 L32.1671875,57.2829687 C31.7723437,58.3559375 32.6298438,59.31625 33.7017187,58.8185937 L43.21625,54.1121875 C43.6264063,54.0323437 44.0245313,53.8726562 44.3417188,53.5554688 L61.245625,36.6395312 C62.094375,35.791875 62.094375,34.41375 61.245625,33.565 L57.404375,29.7204687 C56.5545312,28.8717188 55.1796875,28.8717188 54.3309375,29.7204687 L37.4270313,46.6353125 C37.10875,46.9535937 36.95125,47.3517187 36.8703125,47.761875 L36.8703125,47.761875 Z M60.8125,41.125 L60.8125,58.625 C60.8125,59.8270312 59.6246875,60.825625 58.4248438,60.825625 L32.3465625,60.825625 C31.1467188,60.825625 30.1732812,59.8521875 30.1732812,58.6501562 L30.1732812,32.5554687 C30.1732812,31.3534375 31.1740625,30.1875 32.375,30.1875 L49.875,30.1875 L49.875,28 L32.375,28 C29.9753125,28 28,30.1535938 28,32.5554687 L28,58.6501562 C28,61.053125 29.9457812,63 32.3465625,63 L58.4248438,63 C60.825625,63 63,61.026875 63,58.625 L63,41.125 L60.8125,41.125 L60.8125,41.125 Z" id="Fill-214" fill="#000000"></path>
                </g>
            </g>
        </g>
    </g>
</svg>