<?xml version="1.0" encoding="UTF-8" standalone="no"?>
<svg width="297px" height="407px" viewBox="0 0 297 407" version="1.1" xmlns="http://www.w3.org/2000/svg" xmlns:xlink="http://www.w3.org/1999/xlink" xmlns:sketch="http://www.bohemiancoding.com/sketch/ns">
    <!-- Generator: Sketch 3.3.3 (12081) - http://www.bohemiancoding.com/sketch -->
    <title>apply-to-train</title>
    <desc>Created with Sketch.</desc>
    <defs></defs>
    <g id="Page-1" stroke="none" stroke-width="1" fill="none" fill-rule="evenodd" sketch:type="MSPage">
        <g id="Revive---trainers" sketch:type="MSArtboardGroup" transform="translate(-199.000000, -1818.000000)">
            <g id="apply-to-train" sketch:type="MSLayerGroup" transform="translate(199.000000, 1818.000000)">
                <rect id="Rectangle-39-Copy-3" stroke="#00C8FF" stroke-width="2" fill="#FFFFFF" sketch:type="MSShapeGroup" x="194" y="5" width="100" height="100" rx="9.2879257"></rect>
                <rect id="Rectangle-39-Copy-4" stroke="#00C8FF" stroke-width="2" fill="#FFFFFF" sketch:type="MSShapeGroup" x="52" y="219" width="100" height="100" rx="9.2879257"></rect>
                <rect id="Rectangle-39" stroke="#00C8FF" stroke-width="0.92879257" fill="#00C8FF" sketch:type="MSShapeGroup" x="65" y="27" width="205" height="280.401875" rx="9.2879257"></rect>
                <rect id="Rectangle-39-Copy" stroke="#00C8FF" stroke-width="0.92879257" fill="#FFFFFF" sketch:type="MSShapeGroup" x="80" y="44" width="176.244344" height="246.731852" rx="9.2879257"></rect>
                <rect id="Rectangle-39-Copy-2" stroke="#00C8FF" stroke-width="2" fill="#FFFFFF" sketch:type="MSShapeGroup" x="0" y="0" width="100" height="100" rx="9.2879257"></rect>
                <path d="M48.6265367,50.170661 C57.2909693,50.170661 64.3388366,43.1780876 64.3388366,34.5860703 C64.3388366,25.9925734 57.2909693,19 48.6265367,19 C39.9665779,19 32.9202019,25.9925734 32.9202019,34.5860703 C32.9202019,43.1780876 39.9665779,50.170661 48.6265367,50.170661 L48.6265367,50.170661 Z M48.6265367,21.2193949 C56.0576671,21.2193949 62.1018919,27.2161998 62.1018919,34.5860703 C62.1018919,41.9544612 56.0576671,47.9512661 48.6265367,47.9512661 C41.1998801,47.9512661 35.1571466,41.9544612 35.1571466,34.5860703 C35.1571466,27.2161998 41.1998801,21.2193949 48.6265367,21.2193949 L48.6265367,21.2193949 Z M71.9712921,78.6410582 C70.9840538,74.3724221 67.4854722,61.6967182 64.8816685,58.3335952 C60.8014813,51.5895941 52.229509,52.4388825 51.9864277,52.469954 L44.996721,52.469954 C44.7074094,52.4758724 37.7922676,52.2850045 33.7389237,58.0628291 C31.487066,61.2750332 28.1868268,73.5423684 27.0280894,78.645497 C26.8908901,79.243254 27.2696794,79.8365722 27.8721632,79.9712155 C28.4761383,80.1102976 29.0741482,79.7315209 29.2083649,79.1337638 C30.4282454,73.7731855 33.6494459,62.0784542 35.576201,59.3293637 C38.9152138,54.568022 44.8669782,54.6923081 44.9579473,54.6893489 L52.1057314,54.6834305 C52.1832788,54.6701141 59.6725699,53.9613874 62.9936872,59.5261501 C63.0205305,59.5690584 63.0488651,59.6119667 63.0801824,59.6504362 C65.1187847,62.2042199 68.5323624,73.6932872 69.7910166,79.1382026 C69.908829,79.6516226 70.371131,79.9993278 70.8796631,79.9993278 C70.9631757,79.9993278 71.0466883,79.9904503 71.1302009,79.9712155 C71.7326847,79.8350926 72.1099827,79.2388152 71.9712921,78.6410582 L71.9712921,78.6410582 Z" id="Fill-91" fill="#00C8FF" sketch:type="MSShapeGroup"></path>
                <rect id="Rectangle-39-Copy-5" fill="#00C8FF" sketch:type="MSShapeGroup" x="224" y="259" width="73" height="73" rx="9.2879257"></rect>
                <path d="M252.42761,292.190031 L244.598176,292.193623 C244.598176,292.193623 244.487649,292.181949 244.306133,292.181949 C243.723845,292.181949 242.626664,292.306764 241.833207,293.14814 C241.220367,293.799152 240.941804,294.715956 241.010097,295.872512 C241.201497,299.130265 242.101886,311.890095 242.108176,311.971809 C242.108176,313.364525 242.950157,316 246.137464,316 L252.711565,315.999102 C252.724145,316 252.753799,316 252.764582,316 C253.464585,316 254.650727,315.532169 254.650727,313.776683 L254.650727,295.06436 C254.71273,294.743793 254.848417,293.724623 254.249955,292.963163 C253.971391,292.61027 253.430439,292.190031 252.42761,292.190031 L252.42761,292.190031 Z M253.321709,294.834485 C253.309129,294.885668 253.302839,294.939545 253.302839,294.992524 L253.302839,313.776683 C253.302839,314.538142 252.964968,314.653079 252.764582,314.653079 L252.764582,315.32654 L252.74661,314.653079 L246.137464,314.653079 C243.55491,314.653079 243.458761,312.242989 243.455166,311.924217 C243.44618,311.795811 242.547588,299.044062 242.357087,295.793493 C242.311258,295.021258 242.465816,294.442082 242.81447,294.072128 C243.276346,293.580951 244.011395,293.52887 244.306133,293.52887 C244.390601,293.52887 244.445415,293.53336 244.526288,293.536952 L252.42761,293.536952 C252.79783,293.536952 253.052132,293.623155 253.188718,293.793765 C253.424149,294.090087 253.362146,294.660284 253.321709,294.834485 L253.321709,294.834485 Z M279.203862,296.344833 C279.111307,296.303527 279.016955,296.266711 278.923501,296.230793 C279.610026,295.800677 280.292057,295.082319 280.292057,293.84405 C280.292057,292.998183 280.03506,292.327417 279.527355,291.851505 C278.746478,291.112494 277.652892,291.055923 277.336587,291.055923 L271.360949,291.055923 C271.263002,291.055923 271.050036,290.949068 271.020382,290.938292 C270.828982,289.885 270.609726,288.691628 271.639512,286.6479 C272.149014,285.635914 272.127448,283.5859 271.588292,281.550254 C271.083284,279.624157 270.174807,277.913567 269.024609,276.733665 C269.002144,276.70942 268.976983,276.688767 268.952721,276.668115 C268.697521,276.472362 267.77916,275.848289 266.721517,276.034164 C266.030499,276.155387 265.450907,276.579218 264.995321,277.293086 C264.927028,277.401738 264.890186,277.526552 264.890186,277.654959 L264.882997,282.472446 C264.819197,283.090233 264.590955,284.346462 264.131774,285.144737 C263.785816,285.749055 262.152175,288.399795 260.625467,290.74254 C259.192212,292.941613 258.659347,293.620461 258.46615,293.832376 C257.839831,294.528285 256.554844,294.599223 255.844058,294.572285 C255.491809,294.570489 255.160229,294.852444 255.148547,295.224195 C255.136866,295.595945 255.429807,295.906634 255.801824,295.919206 C256.95292,295.953328 258.526356,295.778228 259.467182,294.735711 C259.852678,294.31188 260.621873,293.215487 261.754997,291.477061 C263.192745,289.269008 264.898273,286.518596 265.30264,285.814605 C265.990063,284.616744 266.190449,282.933991 266.208421,282.696932 C266.23448,282.589179 266.238074,282.492201 266.238074,282.418569 L266.238074,277.863282 C266.455534,277.57145 266.691863,277.407125 266.954252,277.360432 C267.440391,277.276025 267.948994,277.605572 268.095464,277.709733 C269.067741,278.725312 269.843226,280.207823 270.285334,281.89327 C270.784951,283.785245 270.736427,285.443753 270.436297,286.042684 C269.203429,288.48959 269.488282,290.044835 269.694959,291.180738 C269.839632,291.96734 270.772371,292.402844 271.360949,292.402844 L277.336587,292.402844 C277.638514,292.402844 278.245064,292.492639 278.603602,292.832063 C278.832743,293.046672 278.944169,293.378015 278.944169,293.84405 C278.944169,294.802159 278.230686,295.152359 277.369835,295.481905 L277.201798,295.548353 C277.017587,295.621985 276.45417,295.846472 276.492809,296.413077 C276.533246,296.983273 277.062516,297.113476 277.573815,297.23829 C277.894613,297.31731 278.293588,297.415186 278.654822,297.57502 C279.12209,297.784242 279.74122,298.763005 279.641476,299.686094 C279.514775,300.827385 278.347503,301.299706 277.388705,301.496356 C276.78575,301.622069 276.564696,302.014472 276.556609,302.338631 C276.552116,302.597239 276.661744,303.061478 277.472275,303.268006 C277.624137,303.312005 278.098593,303.793305 278.12645,304.428154 C278.163292,305.290183 277.314122,305.803809 276.588958,306.084866 C276.544927,306.102825 276.504491,306.115397 276.465851,306.12707 C276.248392,306.19711 275.793704,306.342577 275.666104,306.937018 C275.525924,307.553908 276.067775,307.860108 276.272654,307.975045 C276.597944,308.159125 276.935815,308.349489 276.935815,309.244743 C276.935815,309.537474 276.856739,309.823021 276.697688,310.094201 C276.53684,310.369871 276.126183,310.674275 275.903332,310.838599 C275.497169,311.141207 274.5833,311.520141 274.125917,311.616222 L274.033362,311.635976 C271.082385,312.236703 267.399055,312.983795 261.887989,312.906572 C258.998116,312.862572 257.385143,312.022992 256.610557,311.620711 C256.156768,311.384551 255.828782,311.215737 255.450474,311.409694 C255.129677,311.571324 255.027237,311.942176 255.171911,312.270825 C255.31299,312.586005 255.700283,312.731472 256.028269,312.624616 C255.871015,312.694656 255.726342,312.678493 255.670629,312.658738 C255.744314,312.684779 255.847652,312.742247 255.987832,312.814981 C256.854974,313.265751 258.660246,314.204106 261.867322,314.253493 C262.143189,314.257084 262.411868,314.25888 262.677852,314.25888 C267.897774,314.25888 271.435532,313.539625 274.30294,312.955061 L274.399988,312.935306 C275.021813,312.803308 276.124386,312.353436 276.706674,311.919728 C277.120925,311.614426 277.584599,311.248063 277.863162,310.772151 C278.142624,310.292647 278.284602,309.778124 278.284602,309.244743 C278.284602,308.122309 277.878438,307.519786 277.476768,307.169587 C279.30091,306.313843 279.514775,305.036064 279.469845,304.322196 C279.42851,303.655919 279.116698,302.984255 278.683577,302.52271 C280.47537,301.837576 280.897708,300.586735 280.980379,299.833358 C281.149314,298.29697 280.199502,296.789317 279.203862,296.344833 L279.203862,296.344833 Z" id="Fill-83" fill="#FFFFFF" sketch:type="MSShapeGroup"></path>
                <path d="M217.410387,130.350185 C216.727956,129.804742 215.732832,129.905828 215.183507,130.588158 L170.447307,185.800001 C170.402939,185.856862 170.362796,185.913723 170.324765,185.974795 C170.312089,185.995855 170.299412,186.01902 170.284622,186.044292 L158.17834,201.101876 C157.825504,201.533597 157.339563,201.794735 156.809252,201.836854 C156.259927,201.866338 155.761309,201.693649 155.355653,201.329319 L120.650977,169.878975 C120.006576,169.295625 119.003001,169.33985 118.41142,169.986379 C117.824065,170.630801 117.870546,171.63113 118.519173,172.216586 L153.228075,203.671142 C154.191507,204.534584 155.395796,205 156.657132,205 C156.788125,205 156.919117,204.995788 157.052223,204.985258 C158.457228,204.877855 159.729127,204.206055 160.643965,203.085686 L172.904481,187.83646 C172.944624,187.781705 172.98688,187.716421 173.02491,187.646924 L217.649132,132.571968 C218.198457,131.89385 218.090705,130.899839 217.410387,130.350185" id="Fill-141" stroke="#00C8FF" stroke-width="8.56837304" fill="#00C8FF" sketch:type="MSShapeGroup"></path>
                <path d="M189.470072,38.0883536 L221.35619,56.3323826 C226.701397,59.3907071 226.052527,61.869969 219.889307,61.869969 L113.582493,61.869969 C107.427149,61.869969 106.768466,59.3918159 112.11561,56.3323826 L144.001728,38.0883536 C143.424713,36.0414979 143.115991,33.8819634 143.115991,31.6502303 C143.115991,18.5885688 153.690984,8 166.7359,8 C179.780816,8 190.35581,18.5885688 190.35581,31.6502303 C190.35581,33.8819634 190.047087,36.0414979 189.470072,38.0883536 L189.470072,38.0883536 Z M167,37 C173.075132,37 178,32.0751322 178,26 C178,19.9248678 173.075132,15 167,15 C160.924868,15 156,19.9248678 156,26 C156,32.0751322 160.924868,37 167,37 Z" id="Triangle-1" fill="#A7A7A7" sketch:type="MSShapeGroup"></path>
                <path d="M189.79902,36.2765656 L221.35619,54.3323826 C226.701397,57.3907071 226.052527,59.869969 219.889307,59.869969 L113.582493,59.869969 C107.427149,59.869969 106.768466,57.3918159 112.11561,54.3323826 L144.33214,35.8993045 C143.788881,33.9086827 143.498845,31.8133708 143.498845,29.6502303 C143.498845,16.5885688 154.073838,6 167.118754,6 C180.16367,6 190.738664,16.5885688 190.738664,29.6502303 C190.738664,31.9504836 190.410693,34.1740369 189.79902,36.2765656 L189.79902,36.2765656 Z M166.748267,37.4988446 C171.304297,37.4988446 174.997689,33.8054525 174.997689,29.2494223 C174.997689,24.6933922 171.304297,21 166.748267,21 C162.192237,21 158.498845,24.6933922 158.498845,29.2494223 C158.498845,33.8054525 162.192237,37.4988446 166.748267,37.4988446 Z" id="Triangle-1-Copy" fill="#D8D8D8" sketch:type="MSShapeGroup"></path>
                <text id="APPROVED" sketch:type="MSTextLayer" font-family="Lato" font-size="36" font-weight="normal" fill="#000000">
                    <tspan x="72" y="372">APPROVED</tspan>
                </text>
                <text id="Official-certificati" sketch:type="MSTextLayer" font-family="Lato" font-size="18" font-weight="normal" line-spacing="30" fill="#9AB8C7">
                    <tspan x="86" y="398">Official certifications</tspan>
                </text>
            </g>
        </g>
    </g>
</svg>