<?xml version="1.0" encoding="UTF-8" standalone="no"?>
<svg width="92px" height="92px" viewBox="0 0 92 92" version="1.1" xmlns="http://www.w3.org/2000/svg" xmlns:xlink="http://www.w3.org/1999/xlink" xmlns:sketch="http://www.bohemiancoding.com/sketch/ns">
    <!-- Generator: Sketch 3.3.3 (12081) - http://www.bohemiancoding.com/sketch -->
    <title>brand-icon</title>
    <desc>Created with Sketch.</desc>
    <defs></defs>
    <g id="Page-1" stroke="none" stroke-width="1" fill="none" fill-rule="evenodd" sketch:type="MSPage">
        <g id="Revive---trainers" sketch:type="MSArtboardGroup" transform="translate(-1076.000000, -1262.000000)">
            <g id="brand-icon" sketch:type="MSLayerGroup" transform="translate(1077.000000, 1263.000000)">
                <circle id="Oval-28-Copy-2" stroke="#000000" stroke-width="2" sketch:type="MSShapeGroup" cx="45" cy="45" r="45"></circle>
                <path d="M52.7635708,50.0388482 L42.2665708,60.5328482 C39.9655708,62.8178482 36.6295708,63.0618482 34.6635708,61.0838482 L25.8215708,52.3768482 C23.8405708,50.3808482 24.1095708,46.8868482 26.4205708,44.5878482 L39.3215708,31.6688482 C41.2685708,31.0668482 52.0555708,27.7328482 52.5355708,27.5628482 C52.6695708,27.5158482 53.1375708,27.3838482 53.5275708,27.7748482 C54.0575708,28.3088482 58.6505708,32.8988482 59.1525708,33.4008482 C59.4225708,33.6698482 59.4795708,33.9188482 59.3575708,34.2838482 C59.2325708,34.6468482 57.7885708,39.1778482 56.5155708,43.1758482 L55.8875708,45.1448482 C55.7615708,45.5388482 55.9795708,45.9608482 56.3745708,46.0868482 C56.7685708,46.2078482 57.1905708,45.9938482 57.3165708,45.5998482 L57.9445708,43.6308482 C59.0885708,40.0378482 60.6565708,35.1188482 60.7775708,34.7668482 C61.0845708,33.8528482 60.8885708,33.0138482 60.2135708,32.3398482 C59.7105708,31.8378482 55.1215708,27.2518482 54.5915708,26.7168482 C53.9125708,26.0378482 52.9285708,25.8228482 52.0275708,26.1508482 C51.6755708,26.2758482 43.8655708,28.6938482 38.7015708,30.2898482 C38.5845708,30.3258482 38.4785708,30.3908482 38.3915708,30.4768482 L25.3605708,43.5258482 C22.4655708,46.4058482 22.1945708,50.8508482 24.7625708,53.4398482 L33.6045708,62.1468482 C34.7885708,63.3378482 36.3405708,63.9248482 37.9545708,63.9248482 C39.8205708,63.9248482 41.7705708,63.1398482 43.3245708,61.5958482 L53.8245708,51.0998482 C54.1175708,50.8068482 54.1175708,50.3318482 53.8245708,50.0388482 C53.5315708,49.7458482 53.0565708,49.7458482 52.7635708,50.0388482 L52.7635708,50.0388482 Z M51.1795708,38.5848482 C50.7715708,38.6558482 50.4985708,39.0448482 50.5695708,39.4528482 C50.6335708,39.8168482 50.9505708,40.0728482 51.3075708,40.0728482 C51.3505708,40.0728482 51.3945708,40.0688482 51.4385708,40.0618482 C53.3925708,39.7198482 54.8105708,38.0298482 54.8105708,36.0458482 C54.8105708,33.7958482 52.9805708,31.9658482 50.7315708,31.9658482 C48.4805708,31.9658482 46.6495708,33.7958482 46.6495708,36.0458482 C46.6495708,36.8638482 46.8915708,37.6548482 47.3485708,38.3328482 C47.5805708,38.6758482 48.0475708,38.7648482 48.3895708,38.5348482 C48.7325708,38.3028482 48.8235708,37.8368482 48.5915708,37.4928482 C48.3025708,37.0658482 48.1495708,36.5648482 48.1495708,36.0458482 C48.1495708,34.6228482 49.3075708,33.4658482 50.7315708,33.4658482 C52.1535708,33.4658482 53.3105708,34.6228482 53.3105708,36.0458482 C53.3105708,37.2998482 52.4145708,38.3678482 51.1795708,38.5848482 L51.1795708,38.5848482 Z M63.4155708,34.6368482 C63.0935708,34.3748482 62.6215708,34.4248482 62.3605708,34.7478482 C62.1005708,35.0698482 62.1505708,35.5418482 62.4725708,35.8028482 C66.0985708,38.7368482 67.0985708,43.5408482 64.7015708,46.5098482 C63.6875708,47.7658482 62.1575708,48.5508482 60.3945708,48.7218482 C58.1375708,48.9428482 55.7245708,48.1598482 53.7675708,46.5778482 C50.1385708,43.6458482 49.1365708,38.8438482 51.5335708,35.8738482 C51.7945708,35.5518482 51.7435708,35.0798482 51.4215708,34.8188482 C51.0995708,34.5608482 50.6265708,34.6098482 50.3665708,34.9328482 C47.4505708,38.5448482 48.5525708,44.2928482 52.8245708,47.7438482 C54.8315708,49.3658482 57.2725708,50.2578482 59.6435708,50.2578482 C59.9435708,50.2578482 60.2425708,50.2428482 60.5395708,50.2138482 C62.7055708,50.0048482 64.5985708,49.0238482 65.8685708,47.4518482 C68.7845708,43.8408482 67.6845708,38.0918482 63.4155708,34.6368482 L63.4155708,34.6368482 Z" id="Fill-53" fill="#000000" sketch:type="MSShapeGroup"></path>
            </g>
        </g>
    </g>
</svg>