<?xml version="1.0" encoding="UTF-8" standalone="no"?>
<svg width="297px" height="404px" viewBox="0 0 297 404" version="1.1" xmlns="http://www.w3.org/2000/svg" xmlns:xlink="http://www.w3.org/1999/xlink" xmlns:sketch="http://www.bohemiancoding.com/sketch/ns">
    <!-- Generator: Sketch 3.3.3 (12081) - http://www.bohemiancoding.com/sketch -->
    <title>collect-your-money</title>
    <desc>Created with Sketch.</desc>
    <defs></defs>
    <g id="Page-1" stroke="none" stroke-width="1" fill="none" fill-rule="evenodd" sketch:type="MSPage">
        <g id="Revive---trainers" sketch:type="MSArtboardGroup" transform="translate(-199.000000, -3184.000000)">
            <g id="collect-your-money" sketch:type="MSLayerGroup" transform="translate(199.000000, 3184.000000)">
                <rect id="Rectangle-39-Copy-3" stroke="#00C8FF" stroke-width="2" fill="#FFFFFF" sketch:type="MSShapeGroup" x="190" y="6" width="100" height="100" rx="9.2879257"></rect>
                <rect id="Rectangle-39-Copy-4" stroke="#00C8FF" stroke-width="2" fill="#FFFFFF" sketch:type="MSShapeGroup" x="32" y="213" width="100" height="100" rx="9.2879257"></rect>
                <rect id="Rectangle-39" stroke="#00C8FF" stroke-width="0.92879257" fill="#00C8FF" sketch:type="MSShapeGroup" x="68" y="21" width="205" height="280.401875" rx="9.2879257"></rect>
                <rect id="Rectangle-39-Copy" stroke="#00C8FF" stroke-width="0.92879257" fill="#FFFFFF" sketch:type="MSShapeGroup" x="80" y="38" width="176.244344" height="246.731852" rx="9.2879257"></rect>
                <rect id="Rectangle-39-Copy-2" stroke="#00C8FF" stroke-width="2" fill="#FFFFFF" sketch:type="MSShapeGroup" x="0" y="4" width="100" height="100" rx="9.2879257"></rect>
                <path d="M29.9591996,59.4843663 L47.1291402,59.4843663 C47.6494414,59.4843663 48.0704581,59.0614269 48.0704581,58.5403051 C48.0704581,58.0191833 47.6494414,57.5962439 47.1291402,57.5962439 L29.9591996,57.5962439 C29.4388984,57.5962439 29.0153682,58.0191833 29.0153682,58.5403051 C29.0153682,59.0614269 29.4388984,59.4843663 29.9591996,59.4843663 L29.9591996,59.4843663 Z M41.8067351,30.8881225 L57.399434,30.8881225 C59.2179747,30.8881225 60.6858777,32.3180605 60.7424322,34.1457631 C60.7575134,34.6568149 61.1760166,35.0596143 61.6850069,35.0596143 L61.7139125,35.0596143 C62.2342137,35.0432506 62.641406,34.6077237 62.6275816,34.0866019 C62.5383512,31.2342782 60.2409825,29 57.399434,29 L41.8067351,29 C41.2864339,29 40.8641604,29.4229394 40.8641604,29.9440612 C40.8641604,30.465183 41.2864339,30.8881225 41.8067351,30.8881225 L41.8067351,30.8881225 Z M29.9591996,66.1028649 L47.1291402,66.1028649 C47.6494414,66.1028649 48.0704581,65.6799255 48.0704581,65.1588037 C48.0704581,64.6376819 47.6494414,64.2147425 47.1291402,64.2147425 L29.9591996,64.2147425 C29.4388984,64.2147425 29.0153682,64.6376819 29.0153682,65.1588037 C29.0153682,65.6799255 29.4388984,66.1028649 29.9591996,66.1028649 L29.9591996,66.1028649 Z M29.9591996,72.7263985 L57.4157719,72.7263985 C57.9348164,72.7263985 58.3583466,72.303459 58.3583466,71.7823372 C58.3583466,71.2612154 57.9348164,70.838276 57.4157719,70.838276 L29.9591996,70.838276 C29.4388984,70.838276 29.0153682,71.2612154 29.0153682,71.7823372 C29.0153682,72.303459 29.4388984,72.7263985 29.9591996,72.7263985 L29.9591996,72.7263985 Z M61.6875204,61.6758471 C61.1672192,61.6758471 60.743689,62.0987866 60.743689,62.6199084 L60.743689,73.7560546 C60.743689,75.6064146 59.2431101,77.1118775 57.399434,77.1118775 L30.2344314,77.1118775 C28.3882418,77.1118775 26.8851494,75.6064146 26.8851494,73.7560546 L26.8851494,46.0396757 C26.8851494,45.5185539 26.4641327,45.0956145 25.9438315,45.0956145 C25.4222735,45.0956145 25,45.5185539 25,46.0396757 L25,73.7560546 C25,76.6473994 27.3501529,79 30.2344314,79 L57.399434,79 C60.2824558,79 62.6300951,76.6473994 62.6300951,73.7560546 L62.6300951,62.6199084 C62.6300951,62.0987866 62.2078217,61.6758471 61.6875204,61.6758471 L61.6875204,61.6758471 Z M47.1291402,50.9764866 L29.9591996,50.9764866 C29.4388984,50.9764866 29.0153682,51.399426 29.0153682,51.9205478 C29.0153682,52.4416696 29.4388984,52.864609 29.9591996,52.864609 L47.1291402,52.864609 C47.6494414,52.864609 48.0704581,52.4416696 48.0704581,51.9205478 C48.0704581,51.399426 47.6494414,50.9764866 47.1291402,50.9764866 L47.1291402,50.9764866 Z M25.9438315,44.6449826 L35.4939982,44.6449826 C38.2098701,44.6449826 40.4230354,42.4308444 40.4230354,39.7081718 L40.4230354,29.9440612 C40.4230354,29.560143 40.1917905,29.2165047 39.8373824,29.0692312 C39.4829743,28.9269926 39.075782,29.0088112 38.8080908,29.2807009 L25.2727183,43.0388198 C25.0062838,43.3094507 24.9271076,43.7147676 25.0741492,44.0646997 C25.2211909,44.4171492 25.564288,44.6449826 25.9438315,44.6449826 L25.9438315,44.6449826 Z M38.5378861,32.2475706 L38.5378861,39.7081718 C38.5378861,41.3886008 37.1705244,42.7568602 35.4939982,42.7568602 L28.1959566,42.7568602 L38.5378861,32.2475706 L38.5378861,32.2475706 Z M70.4723165,35.6059111 C68.1950561,34.0450632 66.5788547,33.3514929 65.2366283,33.3514929 C64.0829169,33.3514929 63.1428557,33.8688384 62.4491208,34.8884246 C62.4214719,34.9299632 62.3523498,35.0168169 62.2555788,35.141433 C62.0243338,35.4372388 61.6535877,35.9155632 61.2476522,36.4694124 L49.9732022,52.9527214 C49.8098226,53.1855898 49.710538,53.3378984 49.710538,53.3378984 C49.6200509,53.4763607 49.5660099,53.6374805 49.5572126,53.8036353 L48.9652757,64.6767031 C48.9489377,64.9901314 49.087182,65.2934898 49.3385352,65.482302 C49.5044284,65.6081768 49.7042542,65.672373 49.9078503,65.672373 C50.0109052,65.672373 50.1127032,65.6560093 50.2145013,65.6207643 L60.9887584,61.9061981 C61.1785301,61.8407432 61.3431665,61.7173858 61.4562754,61.5512311 L72.5786568,45.4807915 L74.2991698,43.0224561 C76.3527258,40.0178239 73.5350559,37.711797 70.4723165,35.6059111 L70.4723165,35.6059111 Z M50.9233175,63.3789336 L50.9673043,62.5834047 L51.7037693,63.1095615 L50.9233175,63.3789336 L50.9233175,63.3789336 Z M53.8930561,62.35683 L51.0892106,60.3503852 L51.3858075,54.910075 C52.1071913,55.2449021 52.9416841,55.8377725 53.2181727,56.6043502 C53.3312816,56.9177786 53.6014864,57.1493882 53.9295024,57.2123257 C53.9483538,57.2148432 55.6952589,57.5836564 56.2582902,59.0224057 C56.3852236,59.3484215 56.6818204,59.5775137 57.0299447,59.6165349 C57.0399988,59.6177937 58.02279,59.7675847 58.9867297,60.6008761 L53.8930561,62.35683 L53.8930561,62.35683 Z M60.5803094,59.5057651 C59.5623287,58.4773677 58.44255,58.0342883 57.791545,57.855546 C57.0010391,56.3840693 55.5519876,55.7408489 54.7828466,55.4916167 C54.1343553,54.2492322 52.9127785,53.5330044 52.1071913,53.1704849 L62.195254,38.3827098 L62.4654587,38.0088616 C63.8051716,38.1938976 65.6777533,39.0183777 67.4108339,40.2091536 C69.1765905,41.422587 70.6319258,42.882735 71.281674,44.0634409 L60.5803094,59.5057651 L60.5803094,59.5057651 Z M72.7407796,41.9588138 L72.442926,42.3855294 C71.555649,41.1343336 70.1669223,39.8126479 68.4790852,38.6533407 C66.851573,37.5343135 65.1712765,36.7337496 63.7071438,36.3460551 C63.7171979,36.3334676 63.7347926,36.3120689 63.74359,36.3007401 C63.8868614,36.1157041 63.9823756,35.9898293 64.0037406,35.9558431 C64.345581,35.4536025 64.7163271,35.2396153 65.2366283,35.2396153 C66.1490406,35.2396153 67.5164023,35.8689895 69.4078355,37.1629827 C73.5752724,40.0266351 73.4005819,40.9920951 72.7407796,41.9588138 L72.7407796,41.9588138 Z" id="Fill-72" fill="#00C8FF" sketch:type="MSShapeGroup"></path>
                <rect id="Rectangle-39-Copy-5" fill="#00C8FF" sketch:type="MSShapeGroup" x="224" y="253" width="73" height="73" rx="9.2879257"></rect>
                <path d="M279.87844,287.535 C280.44544,286.939 280.65444,286.243 280.45644,285.626 C280.25744,285.007 279.67944,284.562 278.86844,284.406 L269.16644,282.554 C268.28644,282.394 267.12644,281.555 266.68344,280.761 L260.93144,270.386 C260.79844,270.148 260.54644,270 260.27544,270 C260.00144,270 259.75144,270.147 259.61944,270.385 L253.85544,280.758 C253.41044,281.555 252.24844,282.394 251.36344,282.556 L241.64844,284.406 C240.84944,284.562 240.27544,285.006 240.07544,285.622 C239.87444,286.238 240.07944,286.934 240.63844,287.534 L247.39044,294.689 C248.00544,295.339 248.45144,296.704 248.34544,297.605 L247.11844,307.312 C247.00744,308.165 247.28144,308.683 247.53244,308.968 C248.03844,309.547 248.91044,309.666 249.78144,309.259 L258.72944,305.099 C259.51344,304.732 261.01944,304.732 261.80844,305.099 L270.75144,309.259 C271.10144,309.423 271.44544,309.506 271.77144,309.506 C272.26144,309.506 272.69744,309.315 273.00144,308.969 C273.25244,308.684 273.52744,308.166 273.41644,307.316 L272.18944,297.602 C272.07244,296.71 272.51944,295.348 273.14644,294.687 L279.87844,287.535 L279.87844,287.535 Z M272.05644,293.657 C271.12244,294.64 270.52744,296.459 270.70044,297.793 L271.92844,307.507 C271.96644,307.789 271.91144,307.936 271.87444,307.979 C271.80044,308.061 271.58344,307.993 271.38644,307.9 L262.44144,303.74 C261.84744,303.464 261.07544,303.311 260.26644,303.311 C259.45844,303.311 258.68744,303.464 258.09544,303.74 L249.14644,307.9 C248.83144,308.049 248.70844,308.037 248.66044,307.979 C248.62244,307.937 248.56844,307.79 248.60744,307.504 L249.83344,297.787 C249.99244,296.44 249.39844,294.627 248.48044,293.659 L241.73344,286.507 C241.50644,286.264 241.49344,286.112 241.50144,286.085 C241.51144,286.057 241.61144,285.942 241.93344,285.879 L251.63844,284.031 C252.95444,283.791 254.50244,282.674 255.16344,281.489 L260.27444,272.295 L265.37344,281.491 C266.03344,282.674 267.58144,283.791 268.89144,284.029 L278.58544,285.879 C278.91544,285.942 279.02044,286.059 279.02744,286.085 C279.03544,286.109 279.01944,286.262 278.78844,286.506 L272.05644,293.657 L272.05644,293.657 Z" id="Fill-85" fill="#FFFFFF" sketch:type="MSShapeGroup"></path>
                <path d="M189.470072,32.0883536 L221.35619,50.3323826 C226.701397,53.3907071 226.052527,55.869969 219.889307,55.869969 L113.582493,55.869969 C107.427149,55.869969 106.768466,53.3918159 112.11561,50.3323826 L144.001728,32.0883536 C143.424713,30.0414979 143.115991,27.8819634 143.115991,25.6502303 C143.115991,12.5885688 153.690984,2 166.7359,2 C179.780816,2 190.35581,12.5885688 190.35581,25.6502303 C190.35581,27.8819634 190.047087,30.0414979 189.470072,32.0883536 L189.470072,32.0883536 Z M167,31 C173.075132,31 178,26.0751322 178,20 C178,13.9248678 173.075132,9 167,9 C160.924868,9 156,13.9248678 156,20 C156,26.0751322 160.924868,31 167,31 Z" id="Triangle-1" fill="#A7A7A7" sketch:type="MSShapeGroup"></path>
                <path d="M189.79902,30.2765656 L221.35619,48.3323826 C226.701397,51.3907071 226.052527,53.869969 219.889307,53.869969 L113.582493,53.869969 C107.427149,53.869969 106.768466,51.3918159 112.11561,48.3323826 L144.33214,29.8993045 C143.788881,27.9086827 143.498845,25.8133708 143.498845,23.6502303 C143.498845,10.5885688 154.073838,0 167.118754,0 C180.16367,0 190.738664,10.5885688 190.738664,23.6502303 C190.738664,25.9504836 190.410693,28.1740369 189.79902,30.2765656 L189.79902,30.2765656 Z M166.748267,31.4988446 C171.304297,31.4988446 174.997689,27.8054525 174.997689,23.2494223 C174.997689,18.6933922 171.304297,15 166.748267,15 C162.192237,15 158.498845,18.6933922 158.498845,23.2494223 C158.498845,27.8054525 162.192237,31.4988446 166.748267,31.4988446 Z" id="Triangle-1-Copy" fill="#D8D8D8" sketch:type="MSShapeGroup"></path>
                <text id="COLLECT" sketch:type="MSTextLayer" font-family="Lato" font-size="36" font-weight="normal" fill="#000000">
                    <tspan x="93" y="366">COLLECT</tspan>
                </text>
                <text id="Take-back-your-freed" sketch:type="MSTextLayer" font-family="Lato" font-size="18" font-weight="normal" line-spacing="30" fill="#9AB8C7">
                    <tspan x="75" y="392">Take back your freedom</tspan>
                </text>
                <path d="M162.4,207.72 C157.559976,207.279998 153.15002,206.09001 149.17,204.15 C145.18998,202.20999 141.760014,199.740015 138.88,196.74 L142.12,191.82 C142.440002,191.379998 142.839998,191.020001 143.32,190.74 C143.800002,190.459999 144.319997,190.32 144.88,190.32 C145.640004,190.32 146.499995,190.699996 147.46,191.46 C148.420005,192.220004 149.599993,193.089995 151,194.07 C152.400007,195.050005 154.06999,195.999995 156.01,196.92 C157.95001,197.840005 160.279986,198.459998 163,198.78 L165.22,166.92 C162.419986,166.079996 159.670014,165.130005 156.97,164.07 C154.269986,163.009995 151.850011,161.630008 149.71,159.93 C147.569989,158.229991 145.850007,156.090013 144.55,153.51 C143.249993,150.929987 142.6,147.700019 142.6,143.82 C142.6,140.899985 143.169994,138.050014 144.31,135.27 C145.450006,132.489986 147.119989,130.020011 149.32,127.86 C151.520011,125.699989 154.219984,123.930007 157.42,122.55 C160.620016,121.169993 164.279979,120.400001 168.4,120.24 L169,111.6 C169.04,110.839996 169.329997,110.160003 169.87,109.56 C170.410003,108.959997 171.119996,108.66 172,108.66 L175.96,108.66 L175.12,120.54 C179.320021,121.060003 182.949985,122.139992 186.01,123.78 C189.070015,125.420008 191.779988,127.399988 194.14,129.72 L191.56,133.68 C190.759996,134.880006 189.840005,135.48 188.8,135.48 C188.239997,135.48 187.550004,135.230002 186.73,134.73 C185.909996,134.229997 184.930006,133.650003 183.79,132.99 C182.649994,132.329997 181.310008,131.670003 179.77,131.01 C178.229992,130.349997 176.48001,129.880001 174.52,129.6 L172.54,158.64 C175.420014,159.520004 178.259986,160.479995 181.06,161.52 C183.860014,162.560005 186.379989,163.899992 188.62,165.54 C190.860011,167.180008 192.669993,169.229988 194.05,171.69 C195.430007,174.150012 196.12,177.219982 196.12,180.9 C196.12,184.500018 195.520006,187.879984 194.32,191.04 C193.119994,194.200016 191.370012,196.979988 189.07,199.38 C186.769989,201.780012 183.950017,203.729992 180.61,205.23 C177.269983,206.730007 173.460021,207.599999 169.18,207.84 L168.46,218.4 C168.42,219.160004 168.120003,219.829997 167.56,220.41 C166.999997,220.990003 166.300004,221.28 165.46,221.28 L161.5,221.28 L162.4,207.72 Z M185.98,182.58 C185.98,180.57999 185.610004,178.860007 184.87,177.42 C184.129996,175.979993 183.120006,174.740005 181.84,173.7 C180.559994,172.659995 179.060009,171.760004 177.34,171 C175.619991,170.239996 173.78001,169.540003 171.82,168.9 L169.78,198.78 C172.420013,198.539999 174.73999,197.970004 176.74,197.07 C178.74001,196.169995 180.429993,195.020007 181.81,193.62 C183.190007,192.219993 184.229996,190.590009 184.93,188.73 C185.630003,186.869991 185.98,184.820011 185.98,182.58 L185.98,182.58 Z M152.68,142.74 C152.68,144.66001 153.019997,146.329993 153.7,147.75 C154.380003,149.170007 155.319994,150.419995 156.52,151.5 C157.720006,152.580005 159.119992,153.519996 160.72,154.32 C162.320008,155.120004 164.059991,155.839997 165.94,156.48 L167.74,129.42 C165.139987,129.660001 162.890009,130.179996 160.99,130.98 C159.08999,131.780004 157.530006,132.779994 156.31,133.98 C155.089994,135.180006 154.180003,136.529992 153.58,138.03 C152.979997,139.530007 152.68,141.099992 152.68,142.74 L152.68,142.74 Z" id="$" fill="#00C8FF" sketch:type="MSShapeGroup"></path>
            </g>
        </g>
    </g>
</svg>