<?xml version="1.0" encoding="UTF-8" standalone="no"?>
<svg width="92px" height="92px" viewBox="0 0 92 92" version="1.1" xmlns="http://www.w3.org/2000/svg" xmlns:xlink="http://www.w3.org/1999/xlink" xmlns:sketch="http://www.bohemiancoding.com/sketch/ns">
    <!-- Generator: Sketch 3.3.3 (12081) - http://www.bohemiancoding.com/sketch -->
    <title>Engage your community-icon</title>
    <desc>Created with Sketch.</desc>
    <defs></defs>
    <g id="Users-page" stroke="none" stroke-width="1" fill="none" fill-rule="evenodd" sketch:type="MSPage">
        <g id="Revive---users" sketch:type="MSArtboardGroup" transform="translate(-1067.000000, -1439.000000)">
            <g id="3-sections" sketch:type="MSLayerGroup" transform="translate(264.000000, 1440.000000)">
                <g id="Engage-your-community-icon" transform="translate(804.000000, 0.000000)" sketch:type="MSShapeGroup">
                    <circle id="Oval-28-Copy-2" stroke="#000000" stroke-width="2" cx="45" cy="45" r="45"></circle>
                    <path d="M61.90625,47.6875 L55.34375,47.6875 C54.7389062,47.6875 54.25,48.1775 54.25,48.78125 C54.25,49.3860938 54.7389062,49.875 55.34375,49.875 L61.90625,49.875 C62.5110938,49.875 63,49.3860938 63,48.78125 C63,48.1775 62.5110938,47.6875 61.90625,47.6875 L61.90625,47.6875 Z M61.90625,41.125 L53.15625,41.125 C52.5514062,41.125 52.0625,41.6139062 52.0625,42.21875 C52.0625,42.8235938 52.5514062,43.3125 53.15625,43.3125 L61.90625,43.3125 C62.5110938,43.3125 63,42.8235938 63,42.21875 C63,41.6139062 62.5110938,41.125 61.90625,41.125 L61.90625,41.125 Z M61.90625,54.25 L55.34375,54.25 C54.7389062,54.25 54.25,54.74 54.25,55.34375 C54.25,55.9485938 54.7389062,56.4375 55.34375,56.4375 L61.90625,56.4375 C62.5110938,56.4375 63,55.9485938 63,55.34375 C63,54.74 62.5110938,54.25 61.90625,54.25 L61.90625,54.25 Z M53.15625,36.75 L61.90625,36.75 C62.5110938,36.75 63,36.2610938 63,35.65625 C63,35.0525 62.5110938,34.5625 61.90625,34.5625 L53.15625,34.5625 C52.5514062,34.5625 52.0625,35.0525 52.0625,35.65625 C52.0625,36.2610938 52.5514062,36.75 53.15625,36.75 L53.15625,36.75 Z M49.875,55.890625 C49.875,58.6085938 47.4709375,60.8125 44.5057813,60.8125 L35.5567187,60.8125 C32.5915625,60.8125 30.1875,58.6085938 30.1875,55.890625 L30.1875,52.609375 C30.1875,50.2840625 31.9517187,48.348125 34.3164063,47.8329687 C35.9296875,49.11375 37.8984375,49.875 40.03125,49.875 C42.1640625,49.875 44.1328125,49.11375 45.7460938,47.8329687 C48.1107813,48.348125 49.875,50.2840625 49.875,52.609375 L49.875,55.890625 L49.875,55.890625 Z M32.375,38.9375 C32.375,34.1053125 35.8028125,30.1875 40.03125,30.1875 C44.2596875,30.1875 47.6875,34.1053125 47.6875,38.9375 C47.6875,43.7696875 44.2596875,47.6875 40.03125,47.6875 C35.8028125,47.6875 32.375,43.7696875 32.375,38.9375 L32.375,38.9375 Z M47.6339063,45.8860937 C49.0328125,43.9960938 49.875,41.575625 49.875,38.9375 C49.875,32.8978125 45.4682813,28 40.03125,28 C34.5942187,28 30.1875,32.8978125 30.1875,38.9375 C30.1875,41.575625 31.0296875,43.9960938 32.4285938,45.8860937 C29.8582813,46.7742187 28,49.1892187 28,52.0625 L28,56.4375 C28,60.0610937 30.9389063,63 34.5625,63 L45.5,63 C49.1235937,63 52.0625,60.0610937 52.0625,56.4375 L52.0625,52.0625 C52.0625,49.1892187 50.2042187,46.7742187 47.6339063,45.8860937 L47.6339063,45.8860937 Z" id="Fill-176" fill="#000000"></path>
                </g>
            </g>
        </g>
    </g>
</svg>