<?xml version="1.0" encoding="UTF-8" standalone="no"?>
<svg width="92px" height="92px" viewBox="0 0 92 92" version="1.1" xmlns="http://www.w3.org/2000/svg" xmlns:xlink="http://www.w3.org/1999/xlink" xmlns:sketch="http://www.bohemiancoding.com/sketch/ns">
    <!-- Generator: Sketch 3.3.3 (12081) - http://www.bohemiancoding.com/sketch -->
    <title>Find your fit-icon</title>
    <desc>Created with Sketch.</desc>
    <defs></defs>
    <g id="Users-page" stroke="none" stroke-width="1" fill="none" fill-rule="evenodd" sketch:type="MSPage">
        <g id="Revive---users" sketch:type="MSArtboardGroup" transform="translate(-665.000000, -1439.000000)">
            <g id="3-sections" sketch:type="MSLayerGroup" transform="translate(264.000000, 1440.000000)">
                <g id="Find-your-fit-icon" transform="translate(402.000000, 0.000000)" sketch:type="MSShapeGroup">
                    <circle id="Oval-28-Copy" stroke="#000000" stroke-width="2" cx="45" cy="45" r="45"></circle>
                    <path d="M58.625,50.96875 C58.625,52.3129688 57.7565625,53.15625 56.4375,53.15625 L34.5625,53.15625 C33.2434375,53.15625 32.375,52.3129688 32.375,50.96875 C32.375,50.96875 32.3585938,31.5623438 32.3585938,30.1765625 L58.6414062,30.1765625 C58.6414062,32.3826563 58.625,50.96875 58.625,50.96875 L58.625,50.96875 Z M28,28 L28,30.1875 L30.1875,30.1875 L30.1875,50.96875 C30.1875,53.5609375 31.985625,55.34375 34.5625,55.34375 L41.125,55.34375 L36.75,63 L40.044375,62.9857813 L44.40625,55.34375 L46.59375,55.34375 L50.955625,62.9857813 L54.25,63 L49.875,55.34375 L56.4375,55.34375 C59.014375,55.34375 60.8125,53.5609375 60.8125,50.96875 L60.8125,30.1875 L63,30.1875 L63,28 L28,28 L28,28 Z M38.9375,49.875 C39.5423438,49.875 40.03125,49.3860937 40.03125,48.78125 L40.03125,44.40625 C40.03125,43.8025 39.5423438,43.3125 38.9375,43.3125 C38.3326562,43.3125 37.84375,43.8025 37.84375,44.40625 L37.84375,48.78125 C37.84375,49.3860937 38.3326562,49.875 38.9375,49.875 L38.9375,49.875 Z M52.0625,49.875 C52.6673438,49.875 53.15625,49.3860937 53.15625,48.78125 L53.15625,38.9375 C53.15625,38.33375 52.6673438,37.84375 52.0625,37.84375 C51.4576562,37.84375 50.96875,38.33375 50.96875,38.9375 L50.96875,48.78125 C50.96875,49.3860937 51.4576562,49.875 52.0625,49.875 L52.0625,49.875 Z M45.5,49.875 C46.1048438,49.875 46.59375,49.3860937 46.59375,48.78125 L46.59375,35.65625 C46.59375,35.0525 46.1048438,34.5625 45.5,34.5625 C44.8951562,34.5625 44.40625,35.0525 44.40625,35.65625 L44.40625,48.78125 C44.40625,49.3860937 44.8951562,49.875 45.5,49.875 L45.5,49.875 Z" id="Fill-205" fill="#000000"></path>
                </g>
            </g>
        </g>
    </g>
</svg>