<?xml version="1.0" encoding="UTF-8" standalone="no"?>
<svg width="92px" height="92px" viewBox="0 0 92 92" version="1.1" xmlns="http://www.w3.org/2000/svg" xmlns:xlink="http://www.w3.org/1999/xlink" xmlns:sketch="http://www.bohemiancoding.com/sketch/ns">
    <!-- Generator: Sketch 3.3.3 (12081) - http://www.bohemiancoding.com/sketch -->
    <title>payment-icon</title>
    <desc>Created with Sketch.</desc>
    <defs></defs>
    <g id="Page-1" stroke="none" stroke-width="1" fill="none" fill-rule="evenodd" sketch:type="MSPage">
        <g id="Revive---trainers" sketch:type="MSArtboardGroup" transform="translate(-674.000000, -1262.000000)">
            <g id="payment-icon" sketch:type="MSLayerGroup" transform="translate(675.000000, 1263.000000)">
                <circle id="Oval-28-Copy-3" stroke="#000000" stroke-width="2" sketch:type="MSShapeGroup" cx="45" cy="45" r="45"></circle>
                <path d="M44.135,62.31875 C42.3216576,62.2337496 40.7456317,61.8441701 39.406875,61.15 C38.0681183,60.4558299 36.8887551,59.542089 35.86875,58.40875 L36.4425,57.58 C36.6125008,57.3674989 36.8108322,57.26125 37.0375,57.26125 C37.1650006,57.26125 37.3208324,57.3391659 37.505,57.495 C37.6891676,57.6508341 37.915832,57.8456238 38.185,58.079375 C38.454168,58.3131262 38.7729148,58.5681236 39.14125,58.844375 C39.5095852,59.1206264 39.9381226,59.3827071 40.426875,59.630625 C40.9156274,59.8785429 41.4716636,60.0945824 42.095,60.27875 C42.7183365,60.4629176 43.4266627,60.5762498 44.22,60.61875 L44.9,47.10375 C43.9366618,46.8062485 42.9981296,46.4733352 42.084375,46.105 C41.1706204,45.7366648 40.3560452,45.2656279 39.640625,44.691875 C38.9252048,44.1181221 38.3479189,43.4097959 37.90875,42.566875 C37.4695811,41.7239541 37.25,40.6650064 37.25,39.39 C37.25,38.3983284 37.4377065,37.4456296 37.813125,36.531875 C38.1885435,35.6181204 38.7339548,34.8070869 39.449375,34.09875 C40.1647952,33.3904131 41.0466614,32.8166689 42.095,32.3775 C43.1433386,31.9383311 44.3404099,31.6975002 45.68625,31.655 L45.8775,28.085 C45.8775,27.8866657 45.9341661,27.7237506 46.0475,27.59625 C46.1608339,27.4687494 46.3095824,27.405 46.49375,27.405 L47.25875,27.405 L47.04625,31.67625 C48.4770905,31.7754172 49.730828,32.0906223 50.8075,32.621875 C51.884172,33.1531277 52.8687455,33.8649955 53.76125,34.7575 L53.29375,35.48 C53.1520826,35.7208345 52.9608345,35.84125 52.72,35.84125 C52.5499991,35.84125 52.3268764,35.7243762 52.050625,35.490625 C51.7743736,35.2568738 51.4131272,34.9983347 50.966875,34.715 C50.5206228,34.4316652 49.9716699,34.1589596 49.32,33.896875 C48.6683301,33.6347904 47.8820879,33.4683337 46.96125,33.3975 L46.345,45.5525 C47.3508384,45.878335 48.3495784,46.2183316 49.34125,46.5725 C50.3329216,46.9266684 51.2183294,47.3870805 51.9975,47.95375 C52.7766706,48.5204195 53.4070809,49.2216625 53.88875,50.0575 C54.3704191,50.8933375 54.61125,51.9487436 54.61125,53.22375 C54.61125,54.4420894 54.4058354,55.5895779 53.995,56.66625 C53.5841646,57.7429221 52.9927122,58.6885376 52.220625,59.503125 C51.4485378,60.3177124 50.495839,60.9729142 49.3625,61.46875 C48.229161,61.9645858 46.9400072,62.2479163 45.495,62.31875 L45.2825,66.8025 C45.2683333,66.9866676 45.2081255,67.1424994 45.101875,67.27 C44.9956245,67.3975006 44.8433343,67.46125 44.645,67.46125 L43.88,67.46125 L44.135,62.31875 Z M52.69875,53.5425 C52.69875,52.6074953 52.5216684,51.8141699 52.1675,51.1625 C51.8133316,50.5108301 51.338753,49.9583356 50.74375,49.505 C50.148747,49.0516644 49.4616706,48.6727099 48.6825,48.368125 C47.9033294,48.0635401 47.0887542,47.776668 46.23875,47.5075 L45.58,60.61875 C46.713339,60.5479163 47.7227039,60.3177103 48.608125,59.928125 C49.4935461,59.5385397 50.2372887,59.0285448 50.839375,58.398125 C51.4414613,57.7677052 51.9018734,57.0381291 52.220625,56.209375 C52.5393766,55.3806209 52.69875,54.4916714 52.69875,53.5425 L52.69875,53.5425 Z M39.1625,39.22 C39.1625,40.0983377 39.3183318,40.8491635 39.63,41.4725 C39.9416682,42.0958364 40.366664,42.6306228 40.905,43.076875 C41.443336,43.5231272 42.0631215,43.9056234 42.764375,44.224375 C43.4656285,44.5431266 44.2129127,44.837082 45.00625,45.10625 L45.60125,33.37625 C44.5245779,33.4329169 43.5860457,33.6312483 42.785625,33.97125 C41.9852043,34.3112517 41.315836,34.7468723 40.7775,35.278125 C40.239164,35.8093777 39.835418,36.4149966 39.56625,37.095 C39.297082,37.7750034 39.1625,38.4833297 39.1625,39.22 L39.1625,39.22 Z" id="$" fill="#000000" sketch:type="MSShapeGroup"></path>
            </g>
        </g>
    </g>
</svg>