<?xml version="1.0" encoding="UTF-8" standalone="no"?>
<svg width="92px" height="92px" viewBox="0 0 92 92" version="1.1" xmlns="http://www.w3.org/2000/svg" xmlns:xlink="http://www.w3.org/1999/xlink" xmlns:sketch="http://www.bohemiancoding.com/sketch/ns">
    <!-- Generator: Sketch 3.3.3 (12081) - http://www.bohemiancoding.com/sketch -->
    <title>sourcing-icon</title>
    <desc>Created with Sketch.</desc>
    <defs></defs>
    <g id="Page-1" stroke="none" stroke-width="1" fill="none" fill-rule="evenodd" sketch:type="MSPage">
        <g id="Revive---trainers" sketch:type="MSArtboardGroup" transform="translate(-272.000000, -1262.000000)">
            <g id="sourcing-icon" sketch:type="MSLayerGroup" transform="translate(273.000000, 1263.000000)">
                <circle id="Oval-28" stroke="#000000" stroke-width="2" sketch:type="MSShapeGroup" cx="45" cy="45" r="45"></circle>
                <path d="M55.9605254,33.619 C57.6155254,33.619 58.9615254,32.272 58.9615254,30.617 C58.9615254,28.962 57.6155254,27.615 55.9605254,27.615 C54.3065254,27.615 52.9595254,28.962 52.9595254,30.617 C52.9595254,32.272 54.3065254,33.619 55.9605254,33.619 L55.9605254,33.619 Z M55.9605254,29.115 C56.7875254,29.115 57.4615254,29.789 57.4615254,30.617 C57.4615254,31.445 56.7875254,32.119 55.9605254,32.119 C55.1335254,32.119 54.4595254,31.445 54.4595254,30.617 C54.4595254,29.789 55.1335254,29.115 55.9605254,29.115 L55.9605254,29.115 Z M48.4285254,31.347 C50.5295254,33.86 52.5165254,36.234 55.9605254,36.234 C59.4035254,36.234 61.8945254,33.291 63.5415254,31.344 L63.7015254,31.155 C63.9265254,30.89 63.9405254,30.504 63.7325254,30.223 C61.9315254,27.792 59.4195254,25 55.9605254,25 C53.0705254,25 50.8565254,26.965 48.2165254,30.136 C47.9845254,30.414 47.9855254,30.819 48.2195254,31.097 L48.4285254,31.347 L48.4285254,31.347 Z M55.9605254,26.5 C58.5475254,26.5 60.6135254,28.621 62.1695254,30.642 C60.6355254,32.45 58.5765254,34.734 55.9605254,34.734 C53.3065254,34.734 51.7155254,32.935 49.7725254,30.616 C52.0015254,28.001 53.7765254,26.5 55.9605254,26.5 L55.9605254,26.5 Z M65.8955254,63.603 C65.5995254,62.318 64.1715254,56.853 63.0205254,55.332 C61.2875254,52.472 57.6955254,52.825 57.6235254,52.84 L54.8455254,52.84 C54.7235254,52.84 51.8015254,52.764 50.0915254,55.222 C49.8325254,55.592 49.5485254,56.21 49.2205254,57.113 C49.2055254,57.153 49.2095254,57.193 49.2025254,57.234 C48.3915254,54.647 47.4365254,52.064 46.6215254,51 C44.1705254,46.924 39.0395254,47.435 38.9035254,47.455 L34.7615254,47.455 C34.5795254,47.452 30.4405254,47.343 28.0125254,50.835 C26.6665254,52.765 24.7065254,60.113 24.0185254,63.169 C23.9275254,63.573 24.1805254,63.974 24.5855254,64.065 C24.9875254,64.16 25.3905254,63.903 25.4815254,63.499 C26.2015254,60.301 28.1055254,53.325 29.2435254,51.692 C31.1955254,48.884 34.6765254,48.962 34.7345254,48.955 L38.9845254,48.951 C39.0265254,48.947 43.4125254,48.525 45.3565254,51.806 C45.3735254,51.835 45.3935254,51.863 45.4135254,51.89 C46.6175254,53.41 48.6335254,60.258 49.3775254,63.502 C49.4565254,63.848 49.7655254,64.084 50.1085254,64.084 C50.1625254,64.084 50.2195254,64.078 50.2765254,64.065 C50.6795254,63.973 50.9325254,63.57 50.8385254,63.166 C50.5865254,62.067 50.0585254,60.036 49.4145254,57.918 C49.4855254,57.984 49.5705254,58.039 49.6695254,58.074 C50.0575254,58.214 50.4885254,58.015 50.6305254,57.625 C50.9955254,56.618 51.2205254,56.224 51.3225254,56.079 C52.5575254,54.304 54.7085254,54.345 54.8185254,54.34 L57.7045254,54.335 C57.7325254,54.334 60.5205254,54.054 61.7545254,56.139 C61.7725254,56.167 61.7905254,56.195 61.8125254,56.222 C62.5975254,57.213 63.9365254,61.772 64.4325254,63.939 C64.5125254,64.286 64.8205254,64.521 65.1625254,64.521 C65.2185254,64.521 65.2755254,64.515 65.3305254,64.503 C65.7345254,64.41 65.9865254,64.008 65.8955254,63.603 L65.8955254,63.603 Z M56.2825254,39.379 C52.6585254,39.379 49.7115254,42.327 49.7115254,45.951 C49.7115254,49.575 52.6585254,52.523 56.2825254,52.523 C59.9075254,52.523 62.8575254,49.575 62.8575254,45.951 C62.8575254,42.327 59.9075254,39.379 56.2825254,39.379 L56.2825254,39.379 Z M56.2825254,51.023 C53.4865254,51.023 51.2115254,48.748 51.2115254,45.951 C51.2115254,43.154 53.4865254,40.879 56.2825254,40.879 C59.0805254,40.879 61.3575254,43.154 61.3575254,45.951 C61.3575254,48.748 59.0805254,51.023 56.2825254,51.023 L56.2825254,51.023 Z M36.9105254,46.254 C42.0965254,46.254 46.3145254,42.036 46.3145254,36.851 C46.3145254,31.668 42.0965254,27.451 36.9105254,27.451 C31.7275254,27.451 27.5105254,31.668 27.5105254,36.851 C27.5105254,42.036 31.7275254,46.254 36.9105254,46.254 L36.9105254,46.254 Z M36.9105254,28.951 C41.2685254,28.951 44.8145254,32.495 44.8145254,36.851 C44.8145254,41.209 41.2685254,44.754 36.9105254,44.754 C32.5545254,44.754 29.0105254,41.209 29.0105254,36.851 C29.0105254,32.495 32.5545254,28.951 36.9105254,28.951 L36.9105254,28.951 Z" id="Fill-86" fill="#000000" sketch:type="MSShapeGroup"></path>
            </g>
        </g>
    </g>
</svg>